HIERARCHY
ROOT hip
{
  OFFSET 0.00112043 5.09927 -9.65472
  CHANNELS 6 Xposition Yposition Zposition Zrotation Xrotation Yrotation
  JOINT abdomen
  {
    OFFSET 0 -1.186 -1.5018
    CHANNELS 3 Zrotation Xrotation Yrotation
    JOINT abdomen2
    {
      OFFSET 0 9.964 0.2134
      CHANNELS 3 Zrotation Xrotation Yrotation
      JOINT chest
      {
        OFFSET 0 13.134 -3.2573
        CHANNELS 3 Zrotation Xrotation Yrotation
        JOINT neck
        {
          OFFSET 0 20.686 -1.6905
          CHANNELS 3 Zrotation Xrotation Yrotation
          JOINT head
          {
            OFFSET 0 7.238 -0.1237
            CHANNELS 3 Zrotation Xrotation Yrotation
            End Site
            {
              OFFSET 0 0 0
            }
          }
        }
        JOINT lCollar
        {
          OFFSET 1.7069 20.075 5.0056
          CHANNELS 3 Zrotation Xrotation Yrotation
          JOINT lShldr
          {
            OFFSET 13.6458 -0.047 -4.849
            CHANNELS 3 Zrotation Xrotation Yrotation
            JOINT lForeArm
            {
              OFFSET 28.3255 -0.9759 2.2888
              CHANNELS 3 Zrotation Xrotation Yrotation
              JOINT lHand
              {
                OFFSET 22.1583 -0.53 10.8316
                CHANNELS 3 Zrotation Xrotation Yrotation
                JOINT lThumb1
                {
                  OFFSET 0.786 0.112 2.5817
                  CHANNELS 3 Zrotation Xrotation Yrotation
                  JOINT lThumb2
                  {
                    OFFSET 0.3601 -0.878 4.2331
                    CHANNELS 3 Zrotation Xrotation Yrotation
                    JOINT lThumb2_End
                    {
                      OFFSET 1.8127 -1.216 2.2227
                      CHANNELS 3 Zrotation Xrotation Yrotation
                      End Site
                      {
                        OFFSET 0.0181 -0.0122 0.0222
                      }
                    }
                  }
                }
                JOINT lCarpal1
                {
                  OFFSET 0.9571 1.114 1.7695
                  CHANNELS 3 Zrotation Xrotation Yrotation
                  JOINT lIndex1
                  {
                    OFFSET 4.1246 0.487 4.1451
                    CHANNELS 3 Zrotation Xrotation Yrotation
                    JOINT lIndex2
                    {
                      OFFSET 3.4052 -1.454 2.7682
                      CHANNELS 3 Zrotation Xrotation Yrotation
                      JOINT lIndex2_End
                      {
                        OFFSET 1.4531 -1.795 1.2713
                        CHANNELS 3 Zrotation Xrotation Yrotation
                        End Site
                        {
                          OFFSET 0.0145 -0.0179 0.0127
                        }
                      }
                    }
                  }
                  JOINT lMid1
                  {
                    OFFSET 5.6954 0.21 2.1184
                    CHANNELS 3 Zrotation Xrotation Yrotation
                    JOINT lMid2
                    {
                      OFFSET 3.9766 -1.54 2.3863
                      CHANNELS 3 Zrotation Xrotation Yrotation
                      JOINT lMid2_End
                      {
                        OFFSET 1.4042 -1.926 1.125
                        CHANNELS 3 Zrotation Xrotation Yrotation
                        End Site
                        {
                          OFFSET 0.014 -0.0193 0.0113
                        }
                      }
                    }
                  }
                }
                JOINT lCarpal2
                {
                  OFFSET 2.0956 0.66 -0.3894
                  CHANNELS 3 Zrotation Xrotation Yrotation
                  JOINT lRing1
                  {
                    OFFSET 5.0395 -0.09 2.4971
                    CHANNELS 3 Zrotation Xrotation Yrotation
                    JOINT lRing2
                    {
                      OFFSET 3.7921 -1.552 1.4806
                      CHANNELS 3 Zrotation Xrotation Yrotation
                      JOINT lRing2_End
                      {
                        OFFSET 1.4655 -1.808 0.9609
                        CHANNELS 3 Zrotation Xrotation Yrotation
                        End Site
                        {
                          OFFSET 0.0147 -0.0181 0.0096
                        }
                      }
                    }
                  }
                  JOINT lPinky1
                  {
                    OFFSET 4.9141 -1.269 0.3591
                    CHANNELS 3 Zrotation Xrotation Yrotation
                    JOINT lPinky2
                    {
                      OFFSET 3.1477 -1.685 0.8462
                      CHANNELS 3 Zrotation Xrotation Yrotation
                      JOINT lPinky2_End
                      {
                        OFFSET 0.8055 -1.585 0.7955
                        CHANNELS 3 Zrotation Xrotation Yrotation
                        End Site
                        {
                          OFFSET 0.0081 -0.0158 0.008
                        }
                      }
                    }
                  }
                }
              }
            }
          }
        }
        JOINT rCollar
        {
          OFFSET -1.7069 20.075 5.0056
          CHANNELS 3 Zrotation Xrotation Yrotation
          JOINT rShldr
          {
            OFFSET -13.6458 -0.047 -4.849
            CHANNELS 3 Zrotation Xrotation Yrotation
            JOINT rForeArm
            {
              OFFSET -28.3255 -0.9759 2.2888
              CHANNELS 3 Zrotation Xrotation Yrotation
              JOINT rHand
              {
                OFFSET -22.1583 -0.53 10.8316
                CHANNELS 3 Zrotation Xrotation Yrotation
                JOINT rThumb1
                {
                  OFFSET -0.786 0.112 2.5817
                  CHANNELS 3 Zrotation Xrotation Yrotation
                  JOINT rThumb2
                  {
                    OFFSET -0.3601 -0.878 4.2331
                    CHANNELS 3 Zrotation Xrotation Yrotation
                    JOINT rThumb2_End
                    {
                      OFFSET -1.8127 -1.216 2.2227
                      CHANNELS 3 Zrotation Xrotation Yrotation
                      End Site
                      {
                        OFFSET -0.0181 -0.0122 0.0222
                      }
                    }
                  }
                }
                JOINT rCarpal1
                {
                  OFFSET -0.9571 1.114 1.7695
                  CHANNELS 3 Zrotation Xrotation Yrotation
                  JOINT rIndex1
                  {
                    OFFSET -4.1246 0.487 4.1451
                    CHANNELS 3 Zrotation Xrotation Yrotation
                    JOINT rIndex2
                    {
                      OFFSET -3.4052 -1.454 2.7682
                      CHANNELS 3 Zrotation Xrotation Yrotation
                      JOINT rIndex2_End
                      {
                        OFFSET -1.4531 -1.795 1.2713
                        CHANNELS 3 Zrotation Xrotation Yrotation
                        End Site
                        {
                          OFFSET -0.0145 -0.018 0.0127
                        }
                      }
                    }
                  }
                  JOINT rMid1
                  {
                    OFFSET -5.6954 0.21 2.1184
                    CHANNELS 3 Zrotation Xrotation Yrotation
                    JOINT rMid2
                    {
                      OFFSET -3.9766 -1.54 2.3863
                      CHANNELS 3 Zrotation Xrotation Yrotation
                      JOINT rMid2_End
                      {
                        OFFSET -1.4042 -1.926 1.125
                        CHANNELS 3 Zrotation Xrotation Yrotation
                        End Site
                        {
                          OFFSET -0.014 -0.0193 0.0113
                        }
                      }
                    }
                  }
                }
                JOINT rCarpal2
                {
                  OFFSET -2.0956 0.66 -0.3894
                  CHANNELS 3 Zrotation Xrotation Yrotation
                  JOINT rRing1
                  {
                    OFFSET -5.0395 -0.09 2.4971
                    CHANNELS 3 Zrotation Xrotation Yrotation
                    JOINT rRing2
                    {
                      OFFSET -3.7921 -1.552 1.4806
                      CHANNELS 3 Zrotation Xrotation Yrotation
                      JOINT rRing2_End
                      {
                        OFFSET -1.4655 -1.808 0.9609
                        CHANNELS 3 Zrotation Xrotation Yrotation
                        End Site
                        {
                          OFFSET -0.0147 -0.0181 0.0096
                        }
                      }
                    }
                  }
                  JOINT rPinky1
                  {
                    OFFSET -4.9141 -1.269 0.3592
                    CHANNELS 3 Zrotation Xrotation Yrotation
                    JOINT rPinky2
                    {
                      OFFSET -3.1477 -1.685 0.8462
                      CHANNELS 3 Zrotation Xrotation Yrotation
                      JOINT rPinky2_End
                      {
                        OFFSET -0.8055 -1.585 0.7955
                        CHANNELS 3 Zrotation Xrotation Yrotation
                        End Site
                        {
                          OFFSET -0.0081 -0.0158 0.008
                        }
                      }
                    }
                  }
                }
              }
            }
          }
        }
      }
    }
  }
  JOINT lThigh
  {
    OFFSET 8.367 -8.2066 0.5982
    CHANNELS 3 Zrotation Xrotation Yrotation
    JOINT lShin
    {
      OFFSET 2.1923 -43.463 -0.4932
      CHANNELS 3 Zrotation Xrotation Yrotation
      JOINT lFoot
      {
        OFFSET 0.7333 -45.8593 -2.6451
        CHANNELS 3 Zrotation Xrotation Yrotation
        End Site
        {
          OFFSET 2.6618 -4.2699 12.3931
        }
      }
    }
  }
  JOINT rThigh
  {
    OFFSET -8.367 -8.2066 0.5982
    CHANNELS 3 Zrotation Xrotation Yrotation
    JOINT rShin
    {
      OFFSET -2.1923 -43.463 -0.4931
      CHANNELS 3 Zrotation Xrotation Yrotation
      JOINT rFoot
      {
        OFFSET -0.7333 -45.8593 -2.6451
        CHANNELS 3 Zrotation Xrotation Yrotation
        End Site
        {
          OFFSET -2.6618 -4.2699 12.3931
        }
      }
    }
  }
}
MOTION
Frames:	5
Frame Time:	0.0333333
1.74431 58.8755 14.6807 0 26.6503 -0 0.241819 -1.92639 -0.278837 0.474652 -3.85391 -0.549998 0.474652 -3.85391 -0.549998 1.09639e-006 19.7255 2.08333e-006 6.43231 -37.5151 3.30511 -17.8775 -9.74798 -27.4347 -54.8124 58.0007 25.5609 -2.90061 2.69265 -4.61956 22.611 -16.3612 -29.6561 9.54166e-015 0 7.95139e-016 6.36111e-015 7.95139e-016 -0 9.54166e-015 2.38542e-015 -7.95139e-016 9.54166e-015 -7.95139e-016 7.95139e-016 9.54166e-015 1.43125e-014 2.22639e-014 3.18055e-015 7.95139e-016 7.95139e-016 0 1.59028e-015 -0 9.54166e-015 1.43125e-014 2.22639e-014 3.18055e-015 7.95139e-016 7.95139e-016 0 1.59028e-015 -0 9.54166e-015 -7.95139e-016 7.95139e-016 9.54166e-015 1.43125e-014 2.22639e-014 3.18055e-015 7.95139e-016 7.95139e-016 0 1.59028e-015 -0 9.54166e-015 1.43125e-014 2.22639e-014 3.18055e-015 7.95139e-016 7.95139e-016 0 1.59028e-015 -0 12.2597 0.00770731 -34.5973 91.562 -4.04412 73.3149 12.8443 44.9374 71.7023 46.306 -22.1605 9.75374 -2.63828e-006 -7.55119e-007 1.85295e-006 -9.26477e-007 4.17942e-007 -1.31914e-006 9.26477e-007 -4.17942e-007 1.31914e-006 -6.36111e-015 4.77083e-015 4.77083e-015 -2.63828e-006 -7.55119e-007 1.85295e-006 -9.26477e-007 4.17942e-007 -1.31914e-006 9.26477e-007 -4.17942e-007 1.31914e-006 -2.63828e-006 -7.55119e-007 1.85295e-006 -9.26477e-007 4.17942e-007 -1.31914e-006 9.26477e-007 -4.17942e-007 1.31914e-006 -6.36111e-015 4.77083e-015 4.77083e-015 -2.63828e-006 -7.55119e-007 1.85295e-006 -9.26477e-007 4.17942e-007 -1.31914e-006 9.26477e-007 -4.17942e-007 1.31914e-006 -2.63828e-006 -7.55119e-007 1.85295e-006 -9.26477e-007 4.17942e-007 -1.31914e-006 9.26477e-007 -4.17942e-007 1.31914e-006 60.3154 -11.9791 21.2176 1.98207 77.6982 2.89959 -47.1648 49.874 60.98 -60.4377 -12.0509 -21.1626 -2.07389 77.681 -2.8181 47.2264 49.8535 -61.0345 
1.74481 58.91 14.5486 0 27.3031 -0 0.242768 -2.0767 -0.278033 0.475911 -4.1546 -0.547792 0.475911 -4.15459 -0.547793 -3.58291e-006 18.9661 -4.95544e-006 6.42518 -37.9486 3.35383 -17.9858 -9.45587 -27.2284 -54.8124 58.0007 25.5609 -2.85248 2.68185 -4.3921 22.7209 -16.4547 -29.8771 -3.18055e-015 0 7.95139e-016 0 0 -0 3.18055e-015 1.59028e-015 7.95139e-016 -3.18055e-015 -7.95139e-016 7.95139e-016 9.54166e-015 7.15625e-015 1.03368e-014 3.18055e-015 2.38542e-015 -0 6.36111e-015 1.59028e-015 -0 9.54166e-015 7.15625e-015 1.03368e-014 3.18055e-015 2.38542e-015 -0 6.36111e-015 1.59028e-015 -0 -3.18055e-015 -7.95139e-016 7.95139e-016 9.54166e-015 7.15625e-015 1.03368e-014 3.18055e-015 2.38542e-015 -0 6.36111e-015 1.59028e-015 -0 9.54166e-015 7.15625e-015 1.03368e-014 3.18055e-015 2.38542e-015 -0 6.36111e-015 1.59028e-015 -0 12.371 0.0900948 -34.878 91.563 -3.90492 73.244 12.8443 44.9374 71.7023 46.3838 -22.0918 9.80882 -1.85307e-006 8.38741e-007 -2.63715e-006 3.18055e-015 -1.43125e-014 -0 -3.18055e-015 -1.27222e-014 -0 3.18055e-015 -3.18055e-015 -1.59028e-015 -1.85307e-006 8.38741e-007 -2.63715e-006 3.18055e-015 -1.43125e-014 -0 3.18055e-015 -1.27222e-014 -0 -1.85307e-006 8.38741e-007 -2.63715e-006 3.18055e-015 -1.43125e-014 -0 3.18055e-015 -1.27222e-014 -0 3.18055e-015 -3.18055e-015 -1.59028e-015 -1.85307e-006 8.38741e-007 -2.63715e-006 3.18055e-015 -1.43125e-014 -0 3.18055e-015 -1.27222e-014 -0 -1.85307e-006 8.38741e-007 -2.63715e-006 3.18055e-015 -1.43125e-014 -0 3.18055e-015 -1.27222e-014 -0 60.1531 -12.6895 21.3933 2.07661 77.9566 2.841 -47.7909 49.5918 61.4515 -60.2858 -12.7637 -21.3416 -2.16902 77.9382 -2.75927 47.8467 49.5738 -61.5021 
1.74533 58.9441 14.4156 0 27.9558 -0 0.243715 -2.22707 -0.277224 0.477175 -4.4553 -0.545576 0.477175 -4.4553 -0.545576 1.71984e-006 18.2076 -3.39556e-006 6.41849 -38.3815 3.40269 -18.095 -9.16404 -27.0218 -54.8124 58.0007 25.5609 -2.80432 2.67119 -4.16462 22.8305 -16.5486 -30.0981 6.36111e-015 1.59028e-015 -1.59028e-015 9.54166e-015 2.38542e-015 -2.38542e-015 1.27222e-014 7.95139e-016 -7.95139e-016 6.36111e-015 0 -0 -6.49948e-030 1.51076e-014 2.46493e-014 4.41391e-032 1.59028e-015 -1.59028e-015 3.18055e-015 7.95139e-016 -7.95139e-016 -6.49948e-030 1.51076e-014 2.46493e-014 4.41391e-032 1.59028e-015 -1.59028e-015 3.18055e-015 7.95139e-016 -7.95139e-016 6.36111e-015 0 -0 -6.49948e-030 1.51076e-014 2.46493e-014 4.41391e-032 1.59028e-015 -1.59028e-015 3.18055e-015 7.95139e-016 -7.95139e-016 -6.49948e-030 1.51076e-014 2.46493e-014 4.41391e-032 1.59028e-015 -1.59028e-015 3.18055e-015 7.95139e-016 -7.95139e-016 12.4826 0.172055 -35.1588 91.5642 -3.76574 73.1732 12.8443 44.9374 71.7023 46.4615 -22.023 9.86378 0 6.36111e-015 -0 -1.32417e-031 4.77083e-015 1.59028e-015 0 4.77083e-015 -0 8.82781e-032 3.18055e-015 -1.59028e-015 3.18055e-015 4.77083e-015 1.59028e-015 -5.29669e-031 6.36111e-015 4.77083e-015 0 1.59028e-015 -0 3.18055e-015 4.77083e-015 1.59028e-015 -5.29669e-031 6.36111e-015 4.77083e-015 0 1.59028e-015 -0 8.82781e-032 3.18055e-015 -1.59028e-015 3.18055e-015 4.77083e-015 1.59028e-015 -5.29669e-031 6.36111e-015 4.77083e-015 0 1.59028e-015 -0 3.18055e-015 4.77083e-015 1.59028e-015 -5.29669e-031 6.36111e-015 4.77083e-015 0 1.59028e-015 -0 59.9929 -13.401 21.5674 2.17565 78.2153 2.77792 -48.4106 49.3068 61.9164 -60.1362 -13.4775 -21.5191 -2.26837 78.1954 -2.6962 48.4608 49.2915 -61.9631 
1.74584 58.9779 14.2815 0 28.6084 -0 0.244651 -2.37743 -0.276407 0.478427 -4.75596 -0.543344 0.478426 -4.75597 -0.543344 2.25267e-006 17.4469 -1.13978e-006 6.41224 -38.8137 3.45171 -18.2053 -8.87263 -26.8148 -54.8124 58.0007 25.5609 -2.75609 2.6608 -3.93713 22.9398 -16.6429 -30.3189 9.54166e-015 -2.38542e-015 -0 1.27222e-014 -7.95139e-016 -0 9.54166e-015 -7.95139e-016 -1.59028e-015 2.20695e-032 -1.59028e-015 7.95139e-016 9.54166e-015 3.97569e-015 1.11319e-014 1.27222e-014 -1.59028e-015 -7.95139e-016 9.54166e-015 -1.59028e-015 7.95139e-016 9.54166e-015 3.97569e-015 1.11319e-014 1.27222e-014 -1.59028e-015 -7.95139e-016 9.54166e-015 -1.59028e-015 7.95139e-016 2.20695e-032 -1.59028e-015 7.95139e-016 9.54166e-015 3.97569e-015 1.11319e-014 1.27222e-014 -1.59028e-015 -7.95139e-016 9.54166e-015 -1.59028e-015 7.95139e-016 9.54166e-015 3.97569e-015 1.11319e-014 1.27222e-014 -1.59028e-015 -7.95139e-016 9.54166e-015 -1.59028e-015 7.95139e-016 12.5947 0.253447 -35.4397 91.5656 -3.62652 73.1024 12.8443 44.9374 71.7023 46.5391 -21.9541 9.91862 1.32417e-031 -4.77083e-015 1.59028e-015 -9.54166e-015 -3.18055e-015 -0 -6.36111e-015 -3.18055e-015 -0 -0 -4.77083e-015 -0 -6.36111e-015 -3.18055e-015 -1.59028e-015 -6.36111e-015 -3.18055e-015 1.59028e-015 -6.36111e-015 -3.18055e-015 1.59028e-015 -6.36111e-015 -3.18055e-015 -1.59028e-015 -6.36111e-015 -3.18055e-015 1.59028e-015 -6.36111e-015 -3.18055e-015 1.59028e-015 -0 -4.77083e-015 -0 -6.36111e-015 -3.18055e-015 -1.59028e-015 -6.36111e-015 -3.18055e-015 1.59028e-015 -6.36111e-015 -3.18055e-015 1.59028e-015 -6.36111e-015 -3.18055e-015 -1.59028e-015 -6.36111e-015 -3.18055e-015 1.59028e-015 -6.36111e-015 -3.18055e-015 1.59028e-015 59.8348 -14.1134 21.7398 2.2789 78.4741 2.71053 -49.0239 49.0191 62.3745 -59.9886 -14.1922 -21.695 -2.37215 78.4528 -2.62867 49.0687 49.0064 -62.4177 
1.74634 59.0112 14.1464 0 29.2608 -0 0.245568 -2.52772 -0.275579 0.479651 -5.05657 -0.54109 0.479651 -5.05656 -0.54109 -1.49491e-005 16.6865 4.49763e-006 6.40643 -39.2453 3.50089 -18.3165 -8.58171 -26.6074 -54.8124 58.0007 25.5609 -2.70784 2.65055 -3.70967 23.0488 -16.7375 -30.5397 6.36111e-015 7.95139e-015 8.74653e-015 9.54166e-015 7.15625e-015 7.95139e-015 -1.19175e-030 7.15625e-015 9.54166e-015 6.36111e-015 7.95139e-016 -7.95139e-016 6.36111e-015 7.15625e-015 7.95139e-015 -9.2692e-031 5.56597e-015 9.54166e-015 3.18055e-015 6.36111e-015 1.03368e-014 6.36111e-015 7.15625e-015 7.95139e-015 -9.2692e-031 5.56597e-015 9.54166e-015 3.18055e-015 6.36111e-015 1.03368e-014 6.36111e-015 7.95139e-016 -7.95139e-016 6.36111e-015 7.15625e-015 7.95139e-015 -9.2692e-031 5.56597e-015 9.54166e-015 3.18055e-015 6.36111e-015 1.03368e-014 6.36111e-015 7.15625e-015 7.95139e-015 -9.2692e-031 5.56597e-015 9.54166e-015 3.18055e-015 6.36111e-015 1.03368e-014 12.7072 0.334227 -35.7208 91.5672 -3.48731 73.0316 12.8443 44.9374 71.7023 46.6165 -21.8851 9.97332 6.36111e-015 4.77083e-015 1.59028e-015 6.36111e-015 0 -1.59028e-015 -9.26678e-007 4.23703e-007 -1.31689e-006 6.36111e-015 1.59028e-015 1.59028e-015 6.36111e-015 -1.59028e-015 -3.18055e-015 3.18055e-015 1.59028e-015 -0 -9.26678e-007 4.23703e-007 -1.31689e-006 6.36111e-015 -1.59028e-015 -3.18055e-015 3.18055e-015 1.59028e-015 -0 -9.26678e-007 4.23703e-007 -1.31689e-006 6.36111e-015 1.59028e-015 1.59028e-015 6.36111e-015 -1.59028e-015 -3.18055e-015 3.18055e-015 1.59028e-015 -0 -9.26678e-007 4.23703e-007 -1.31689e-006 6.36111e-015 -1.59028e-015 -3.18055e-015 3.18055e-015 1.59028e-015 -0 -9.26678e-007 4.23703e-007 -1.31689e-006 59.6787 -14.8269 21.9105 2.3869 78.7331 2.63843 -49.6311 48.7287 62.8261 -59.8432 -14.908 -21.8693 -2.48081 78.7104 -2.55638 49.6705 48.7187 -62.8658 
